<?xml version="1.0" standalone="no"?>
<!DOCTYPE svg PUBLIC "-//W3C//DTD SVG 20010904//EN"
 "http://www.w3.org/TR/2001/REC-SVG-20010904/DTD/svg10.dtd">
<svg version="1.0" xmlns="http://www.w3.org/2000/svg"
 width="1701.000000pt" height="1701.000000pt" viewBox="0 0 1701.000000 1701.000000"
 preserveAspectRatio="xMidYMid meet">
<metadata>
Created by potrace 1.14, written by Peter Selinger 2001-2017
</metadata>
<g transform="translate(0.000000,1701.000000) scale(0.100000,-0.100000)"
fill="#000000" stroke="none">
<path d="M8750 16452 c54 -65 119 -154 120 -166 0 -4 -8 -5 -17 -1 -24 9 -43
13 -70 14 -14 1 -28 12 -37 29 -29 56 -136 142 -177 142 -6 0 7 -20 29 -44 48
-52 97 -124 89 -132 -3 -3 -45 2 -94 11 -48 9 -115 18 -147 20 -58 4 -62 6
-124 67 -62 61 -69 62 -32 8 35 -51 34 -66 -7 -91 -21 -13 -45 -27 -55 -31
-22 -9 -43 18 -47 62 -3 42 -9 49 -22 30 -5 -8 -8 -34 -6 -57 5 -44 5 -44 -55
-34 -4 0 -14 14 -23 30 -8 16 -29 40 -47 53 l-33 23 17 -27 c11 -16 16 -40 14
-64 -3 -31 -9 -41 -32 -51 -47 -20 -86 -16 -117 12 -15 14 -27 30 -27 35 0 9
-51 40 -66 40 -3 0 -1 -6 5 -14 8 -9 8 -21 1 -40 -9 -24 -13 -26 -57 -22 -27
2 -57 4 -68 5 -12 1 -38 24 -63 56 -24 30 -53 60 -65 66 -20 11 -19 9 3 -14
14 -14 32 -38 40 -54 8 -15 23 -41 34 -57 l19 -28 -39 6 c-21 3 -72 16 -111
30 -40 14 -90 28 -110 32 l-38 6 46 -30 c51 -33 64 -48 51 -56 -14 -8 -104 -9
-137 -1 -43 11 -165 9 -195 -3 l-25 -11 30 -1 c17 0 53 -7 80 -14 l50 -14 -60
-2 c-110 -3 -142 -13 -223 -71 l-23 -17 25 -25 c14 -15 26 -34 26 -44 0 -15
-2 -16 -10 -3 -5 8 -10 11 -10 6 0 -5 -6 -4 -12 1 -7 6 -22 12 -33 15 -20 5
-20 5 1 -41 38 -81 39 -89 7 -83 -16 2 -37 12 -48 22 -18 15 -88 57 -170 102
-17 9 -73 35 -125 57 l-95 41 61 -58 c33 -31 53 -51 44 -44 -9 6 -23 12 -31
12 -8 0 -19 4 -25 10 -5 5 -27 12 -49 15 -22 3 -45 8 -52 10 -7 2 -15 0 -18
-4 -2 -5 8 -11 23 -14 47 -10 144 -80 229 -167 45 -46 81 -85 80 -87 -2 -1
-25 9 -52 22 -65 33 -88 33 -53 0 15 -14 42 -46 60 -72 25 -38 28 -45 11 -33
-12 8 -48 33 -80 55 -62 44 -243 139 -250 132 -2 -3 14 -19 37 -37 23 -18 39
-34 37 -36 -2 -3 -24 4 -48 14 -25 11 -60 22 -79 26 l-35 7 30 -17 c37 -20
155 -95 155 -99 0 -1 -30 9 -67 22 -38 13 -110 33 -162 44 -125 25 -138 28
-191 34 -38 5 -31 0 50 -30 52 -20 106 -41 120 -47 36 -15 57 -24 134 -57 l69
-29 -99 3 c-103 3 -235 -13 -314 -39 l-45 -15 50 5 c28 3 64 7 80 10 29 4 29
4 5 -7 -14 -6 -33 -12 -43 -14 -19 -4 -97 -33 -152 -56 -16 -7 -32 -13 -35
-13 -8 -2 -134 -68 -140 -73 -2 -2 18 -1 45 3 44 6 48 5 36 -10 -7 -9 -30 -26
-50 -38 -20 -12 -38 -25 -41 -29 -3 -3 -19 -13 -36 -22 -30 -16 -30 -16 -42
16 -11 31 -67 75 -79 63 -3 -3 9 -24 26 -48 17 -23 31 -46 31 -51 0 -5 -12
-29 -27 -53 -19 -29 -35 -43 -50 -44 -31 0 -103 -30 -103 -42 0 -6 6 -8 13 -5
48 18 44 -60 -4 -95 -20 -15 -26 -25 -19 -32 18 -18 11 -36 -13 -36 -26 0
-115 -28 -121 -38 -2 -4 21 -6 52 -6 91 3 102 -8 40 -36 -51 -23 -52 -24 -23
-28 17 -2 34 -7 39 -12 5 -5 3 -43 -4 -90 -12 -74 -14 -79 -27 -60 -8 11 -29
28 -46 37 -24 12 -29 13 -21 2 6 -8 15 -25 19 -37 6 -22 5 -23 -15 -12 -11 6
-28 10 -36 8 -11 -2 -6 -14 21 -45 20 -24 43 -43 50 -43 30 0 20 -28 -29 -79
-51 -53 -49 -57 9 -16 53 39 53 38 40 -18 -10 -44 -17 -55 -49 -73 -21 -12
-45 -29 -54 -39 -16 -16 -15 -17 16 -13 18 3 35 1 38 -4 3 -4 -1 -8 -9 -8 -8
0 -20 -7 -27 -15 -10 -13 -9 -15 8 -15 12 0 26 -8 31 -19 8 -15 5 -23 -17 -43
-38 -35 -103 -110 -99 -114 2 -2 23 17 47 41 24 25 50 45 57 45 18 0 8 -43
-23 -95 -38 -65 -66 -121 -52 -103 7 9 21 31 31 49 24 44 29 32 13 -31 -13
-49 -12 -55 6 -86 l20 -34 -26 -35 c-19 -25 -23 -35 -13 -35 12 0 29 -59 29
-100 0 -3 4 -12 9 -21 5 -11 0 -53 -16 -117 -30 -125 -36 -156 -27 -147 4 3 7
10 7 13 0 4 7 29 14 55 20 71 33 38 28 -70 -5 -92 0 -109 46 -180 32 -50 34
-78 7 -93 -25 -13 -25 -24 0 -58 l20 -27 -20 -53 -20 -53 28 15 28 14 -1 -91
c-1 -60 -7 -104 -17 -127 -20 -44 -38 -100 -33 -100 3 0 14 19 26 42 18 35 23
39 31 24 11 -19 7 -71 -11 -137 -12 -45 -14 -46 -44 -39 -110 24 -219 -40
-245 -143 -10 -38 -9 -254 2 -302 2 -11 7 -42 10 -70 25 -189 74 -418 117
-549 31 -93 94 -218 185 -370 30 -49 54 -91 54 -93 0 -2 10 -20 23 -41 62 -98
201 -371 232 -454 32 -86 94 -125 180 -114 l45 7 -2 -308 c-2 -169 1 -337 5
-372 31 -250 139 -491 335 -744 l60 -79 -3 -181 c-4 -191 -12 -378 -20 -487
-3 -36 -7 -94 -10 -130 -7 -87 -15 -170 -20 -200 -3 -14 -7 -45 -10 -70 -53
-431 -172 -770 -363 -1030 -57 -77 -225 -251 -299 -308 l-42 -33 5 27 c3 15 7
31 9 35 8 11 -25 15 -145 13 -122 -1 -149 -8 -185 -52 -30 -37 -75 -124 -75
-148 0 -11 -6 -29 -14 -39 -14 -20 -58 -23 -201 -15 -57 3 -167 -18 -221 -42
-38 -18 -105 -133 -118 -203 -3 -16 -9 -32 -13 -36 -5 -5 -94 -45 -198 -89
-105 -45 -203 -87 -220 -95 -16 -7 -75 -30 -130 -51 -108 -40 -139 -58 -380
-216 -301 -197 -533 -325 -710 -392 -77 -29 -237 -71 -306 -81 -151 -21 -207
-34 -274 -62 -89 -37 -167 -91 -268 -183 -48 -43 -84 -97 -73 -107 12 -13 -16
-42 -46 -48 -103 -22 -281 -165 -430 -345 -95 -114 -232 -348 -303 -515 -10
-22 -23 -53 -30 -70 -46 -105 -102 -266 -185 -535 -40 -127 -117 -356 -174
-517 -30 -83 -42 -160 -51 -323 -3 -63 -8 -126 -10 -140 -2 -14 -7 -70 -10
-125 -7 -111 -7 -119 -31 -325 -24 -221 -24 -222 -29 -745 -4 -483 -8 -601
-25 -680 -5 -22 -7 -42 -4 -45 7 -7 15505 -7 15509 0 1 3 -8 39 -21 80 -27 83
-79 286 -88 340 -3 19 -8 48 -11 64 -23 117 -6 274 45 433 35 108 42 195 26
318 -3 22 -8 60 -11 85 -12 108 -16 136 -20 160 -2 14 -7 52 -10 85 -3 33 -8
74 -10 90 -3 17 -9 68 -15 115 -6 47 -12 99 -15 115 -2 17 -7 57 -10 90 -4 33
-8 67 -10 75 -2 8 -7 46 -11 85 -3 38 -8 78 -10 89 -2 11 -6 42 -9 70 -15 137
-34 261 -55 355 -20 90 -98 392 -125 486 -8 28 -23 82 -34 120 -33 117 -135
412 -188 545 -89 220 -170 377 -243 470 -192 248 -628 647 -801 733 -38 19
-44 27 -39 43 12 32 -12 86 -49 111 -46 31 -74 38 -321 78 -118 20 -237 40
-265 46 -297 62 -402 103 -590 224 -189 123 -200 128 -263 126 -76 -3 -133 -9
-140 -15 -3 -3 -41 13 -86 36 -45 22 -90 44 -101 48 -121 47 -250 83 -355 100
-104 16 -175 37 -245 73 -97 48 -174 74 -306 102 -129 27 -202 47 -256 71 -17
8 -36 14 -42 14 -7 0 -31 10 -54 21 -23 12 -43 21 -44 21 -2 -1 -8 0 -15 3
-105 36 -153 47 -218 52 -90 6 -130 -1 -130 -23 0 -13 -6 -15 -27 -9 -16 4
-33 11 -39 16 -6 5 -33 21 -60 35 -109 58 -273 182 -374 284 -152 151 -186
198 -248 340 -13 30 -42 125 -48 160 -2 14 -7 36 -10 48 -2 13 -7 43 -10 65
-3 23 -7 53 -10 67 -27 161 -26 883 1 1210 28 321 37 363 102 466 76 120 148
272 178 379 47 166 54 236 52 556 -2 162 0 304 3 315 4 16 14 19 57 19 77 1
89 15 190 220 112 229 196 385 291 540 93 151 172 343 201 485 6 30 14 66 16
80 66 312 87 600 51 693 -48 128 -190 151 -388 63 -17 -8 -18 -5 -34 89 -7 37
-6 39 10 26 14 -12 16 -12 12 0 -3 8 -7 48 -9 89 -5 71 -4 73 9 40 13 -35 13
-35 9 25 -2 33 4 88 12 122 12 50 13 71 3 115 -6 29 -14 67 -16 83 l-5 30 21
-25 21 -25 -5 60 c-3 33 -8 74 -11 91 -5 21 -1 42 10 64 10 19 15 44 11 60 -3
15 -1 40 3 56 5 19 3 43 -6 68 l-14 40 27 -25 26 -24 -17 40 c-16 39 -23 110
-12 122 4 3 -2 22 -12 42 -16 31 -17 38 -5 49 18 16 17 50 -1 82 -20 35 -18
41 10 34 20 -5 24 -3 19 9 -3 8 1 28 10 44 13 27 13 33 0 59 -8 16 -19 33 -24
38 -5 5 -2 22 7 40 l16 31 49 -55 49 -55 -36 64 c-35 63 -100 150 -138 184
-19 17 -19 17 0 17 25 0 91 -57 128 -110 42 -60 43 -32 2 33 -34 53 -132 157
-148 157 -5 0 -9 4 -9 9 0 4 12 6 28 4 l27 -4 -29 23 c-44 35 -121 108 -112
108 3 0 19 -8 34 -17 l27 -18 -30 40 c-40 52 -67 95 -60 95 3 0 24 -9 45 -19
53 -25 50 -13 -7 35 -25 21 -53 46 -62 54 -18 18 -71 101 -71 112 0 4 19 0 42
-8 l43 -15 -44 43 c-63 63 -67 75 -31 83 42 9 37 22 -12 30 -67 11 -122 39
-198 101 -39 32 -70 59 -70 61 0 1 16 -6 36 -17 45 -26 37 -10 -34 64 -55 58
-59 68 -17 40 34 -22 32 -13 -16 56 -46 68 -192 195 -262 229 -43 21 -76 56
-64 68 3 2 27 -5 54 -16 l48 -22 -30 26 c-16 15 -67 45 -113 67 -86 43 -91 59
-18 52 l41 -3 -30 14 c-16 7 -58 17 -93 20 -57 7 -65 11 -97 48 -19 22 -35 44
-35 48 0 5 -26 6 -57 3 -57 -5 -58 -4 -75 26 -24 43 -23 49 20 93 l37 39 -35
-15 c-19 -8 -57 -25 -83 -38 -62 -31 -83 -20 -79 40 3 34 1 41 -15 41 -10 0
-29 6 -43 13 -19 10 -24 19 -22 41 3 26 2 28 -22 22 -44 -11 -34 22 18 62 31
24 22 27 -34 13 -19 -5 -48 -12 -65 -15 l-30 -6 35 30 c19 16 32 30 29 30 -14
0 -115 -42 -155 -64 -26 -15 -49 -24 -52 -21 -3 2 12 21 32 40 21 19 33 35 28
35 -16 0 -92 -60 -92 -73 0 -6 -6 -1 -13 12 -6 14 -41 49 -77 79 -36 30 -77
65 -92 78 -38 33 -43 30 -19 -9 l20 -33 -29 -11 c-19 -7 -30 -8 -30 -2 0 14
-117 126 -152 147 -16 9 -28 20 -28 24 0 4 -5 8 -11 8 -6 0 -30 15 -53 32
l-41 33 45 -53z"/>
</g>
</svg>
