<?xml version="1.0" encoding="utf-8"?>
<svg version="1.1" id="Layer_1" xmlns="http://www.w3.org/2000/svg" xmlns:xlink="http://www.w3.org/1999/xlink" x="0px" y="0px"
	 viewBox="0 0 1650 1700.996" enable-background="new 0 0 1650 1700.996" xml:space="preserve">
<path d="M1596.668,1535.324c0,0-15.827-129.404-17.09-138.131c-1.51-9.433-25.761-118.577-57.589-168.801
	c-15.514-24.24-75.053-78.202-88.529-80.453c5.87-15.95-15.562-18.285-27.128-20.026c-75.057-11.164-78.208-17.976-103.264-33.906
	c-5.872-3.619-12.041-7.813-15.173-7.403c-5.353,0.921-10.878,0.084-16.152,1.594c-3.241,0.93-5.654-1.868-8.248-3.236
	c-11.365-6.051-34.956-14.105-51.94-15.851c-12.291-1.479-22.567-8.917-34.057-12.853c-8.222-2.71-16.838-3.848-25.25-5.8
	c-23.991-5.292-42.728-20.123-65.838-15.798c-0.363,1.377-0.735,2.754-1.085,4.144c-1.355-0.432-28.51-13.77-49.868-34.477
	c-16.864-17.775-28.288-29.626-32.653-73.75c-5.056-45.523,0.897-146.67,6.553-155.704c39.629-55.936,24.226-93.081,27.513-133.309
	c20.007,3.334,13.786-7.133,48.123-66.489c11.994-20.985,25.699-32.89,33.747-106.682c1.296-13.36,2.899-30.782-7.155-36.961
	c-11.105-6.619-22.957-2.781-34.548,2.878c-0.828-5.233-1.859-10.445-2.612-15.682c0.885,1.722,1.682,3.551,3.108,4.923
	c0,0-0.838-8.289-1.554-21.704c1.023,3.697,1.284,7.549,2.165,11.281c2.248-6.683-1.538-12.1,1.576-18.219
	c2.996-9.858,0.156-6.862-2.116-24.723c1.674,2.174,2.869,4.698,4.733,6.734c-0.943-5.539-0.217-11.419-2.444-16.687
	c-0.527-3.214,2.626-5.41,3.157-8.368c0.31-1.904-0.584-3.648-1.182-5.384c0.425-1.851,1.474-3.502,1.966-5.335
	c-0.921-2.944-2.068-5.818-3.086-8.731c2.13,1.824,3.976,3.954,6.114,5.774c-1.911-3.217-5.913-11.917-3.577-14.983
	c0.987-3.321-1.404-6.371-2.989-9.09c1.541-1.753,2.479-3.91,3.09-6.145c-1.24-2.776-2.462-5.561-3.702-8.333
	c1.798,0.722,3.6,1.439,5.464,2.01c-1.558-1.643-0.987-4.126-0.164-5.977c0.398-1.01,4.053-3.421-2.391-10.294
	c-0.385-2.28,1.297-4.321,2.329-6.247c4.361,2.696,7.319,7,9.953,11.29c-2.43-9.079-12.49-20.964-18.83-27.898
	c7.01,0.232,14.825,11.454,18.64,17.312c-0.462-4.204-5.165-15.432-20.902-26.556c2.373,0.567,4.83,0.576,7.261,0.412
	c-6.5-3.741-12.096-8.926-16.82-14.722c2.718,1.997,5.583,3.777,8.483,5.499c-3.976-4.157-7.066-9.059-9.82-14.08
	c3.453,1.643,6.872,3.378,10.387,4.884c-12.837-14.013-9.639-5.007-20.075-23.165c5.486,0.858,6.166,2.787,10.086,2.63
	c-5.268-2.168-10.746-10.379-11.552-11.379c2.643-0.407,5.185-1.435,7.394-2.944c-15.999-2.862-14.211-1.632-32.786-17.538
	c2.754,1.603,5.57,3.121,8.55,4.268c-4.401-4.972-9.063-9.723-13.345-14.797c2.754,1.395,5.278,3.21,8.018,4.64
	c-16.752-22.196,0.959-3.983-24.418-26.548c-1.846-1.678-4.357-2.316-6.256-3.923c-3.09-2.668-4.778,0.631-8.638-7.527
	c4.175,0.487,8.249,2.006,11.498,4.72c-3.759-5.655-16.776-11.399-23.041-13.982c0.004-0.115,0.009-0.341,0.009-0.456
	c3.586-1.572,7.638-0.886,11.273,0.155c-4.608-4.119-15.353-4.245-18.343-4.428c-3.626-2.435-5.897-6.376-8.381-9.873
	c-3.555,0.341-7.089,1.032-10.67,0.828c-1.293-2.262-2.555-4.543-3.901-6.774c1.908-4.259,5.65-7.372,9.754-9.426
	c-13.798,3.232-18.188,10.801-21.624,5.676c-1.59-2.546,1.244-5.543-0.31-8.063c-1.948-1.877-5.322-0.071-7.221-2.121
	c-1.452-1.833,0.235-4.352-0.894-6.287c-1.443,0.261-2.958,1.036-4.405,0.514c-1.155-2.826,4.665-7.008,8.598-9.028
	c-5.858,1.125-11.671,2.497-17.52,3.679c1.647-1.939,3.688-3.546,5.986-4.645c0.514-0.292,1.165-0.496,1.457-1.071
	c-7.09,0.219-16.004,5.911-21.398,8.97c0.877-3.719,4.122-5.977,7.142-7.908c-3.775-0.772-7.859,3.766-11.764,7.832
	c1.857-4.12-2.504-5.865-21.443-21.682c1.824,2.754,3.303,5.712,5.047,8.514c-1.997-0.208-3.843,0.682-5.521,1.638
	c-4.046-8.192-22.015-20.35-29.709-25.272c6.987,6.756,13.11,14.474,17.785,23.01c-3.436-1.833-7.421-2.205-11.219-2.674
	c-4.176-7.284-12.71-16.577-21.093-17.09c6.938,6.338,13.094,15.364,14.425,18.689c-4.631-0.908-9.276-1.771-13.973-2.183
	c-1.868-0.19-3.498-1.253-5.34-1.536c-4.109-0.314-8.249-0.297-12.34-0.731c-4.215-4.91-8.62-9.816-13.987-13.508
	c3.763,3.56,6.367,8.156,8.08,13.013c-9.808,5.377-9.596,8.558-13.531,3.949c-0.739-2.98-0.642-6.123-1.28-9.134
	c-2.271,1.514-2.767,4.512-2.564,7.044c0.027,1.466,0.899,2.674,1.435,3.98c-2.289,1.324-5.149-0.013-7.602-0.288
	c-0.016-4.487-5.55-8.415-9.537-10.436c6.524,6.896,2.426,7.83,3.188,12.238c-1.138,1.845-8.857,4.208-11.813,2.692
	c-2.116-1.125-4.751-2.435-5.114-5.074c-1.474-2.865-4.888-3.803-7.788-4.49c1.718,1.393,4.059,3.089-0.137,7.801
	c-4.445,0.106-8.908-0.199-13.247-1.178c-3.021-3.339-7.736-11.576-14.071-14.044c7.981,5.865,9.133,13.511,12.986,17.25
	c-2.395,0.266-4.822,0.066-7.173-0.35c-6.437-3.396-16.081-6.2-23.076-6.495c4.374,2.178,8.594,4.768,12.065,8.249
	c-3.502,0.412-6.965,1.098-10.458,1.51c-8.719-3.146-20.946-2.713-27.779-0.009c5.964,0.159,11.981,1.151,17.542,3.33
	c-15.013,0.382-17.009-2.283-32.427,9.373c2.191,0.203,4.875-0.397,6.331,7.722c-2.444-2.351-5.822-3.188-9.054-3.755
	c3.356,3.507,3.316,8.948,6.557,12.561c0.004,0.151,0.013,0.452,0.018,0.602c-1.764-0.02-4.958-0.362-6.548-1.12
	c-7.674-7.607-31.926-17.903-41.863-21.912c5.393,4.507,10.799,9.01,15.935,13.81c-9.979-7.486-19.636-8.593-24.568-7.217
	c13.787,1.143,29.361,17.915,37.736,28.916c-4.193-4.33-10.029-6.699-15.953-7.367c5.914,2.948,11.855,12.966,13.362,16.156
	c-7.993-9.07-28.815-19.21-39.95-23.913c4.994,3.214,9.789,6.814,13.889,11.131c-5.753-3.329-19.435-6.98-21.381-7.084
	c8.341,3.365,15.913,8.346,23.218,13.531c-14.07-7.123-46.621-11.86-49.234-11.711c14.868,4.981,29.315,11.122,43.749,17.223
	c-2.431,0.226-20.436-4.356-51.2,6.004c8.005-1.439,16.107-2.648,24.254-2.688c-13.465,1.42-32.687,10.44-44.652,16.785
	c3.365-0.292,6.726-1.12,10.121-0.824c0.208,0.124,0.62,0.367,0.828,0.491c-5.379,4.126-11.14,7.717-16.789,11.45
	c-0.916-4.673-4.576-10.135-10.427-10.613c4.279,5.663,4.921,8.426,7.367,10.431c-1.523,3.856-4.432,6.978-7,10.17
	c-4.826-0.593-9.355,1.939-12.977,4.875c1.846-0.407,4.065-1.417,5.778-0.111c2.386,2.451-2.149,10.927-6.416,10.843
	c1.262,1.585,2.094,3.44,2.674,5.371c-6.513-0.877-12.734,2.099-18.091,5.477c2.204-0.315,8.494-3.531,18.715,0.536
	c-4.689-0.199-8.682,2.688-12.543,4.95c2.652-0.359,5.619-0.607,8.005,0.846c1.507,0.771,0.337,0.145-1.908,16.989
	c-2.094-3.352-5.366-5.827-9.103-7.075c1.904,2.165,3.002,4.839,3.985,7.509c-2.094-1.979-5.03-2.44-7.784-2.626
	c1.798,2.966,3.693,5.986,6.34,8.271c1.612,1.785,3.129-1.354,4.547,3.374c-3.586,3.786-7.133,7.611-10.626,11.481
	c3.901-2.559,7.372-5.858,11.649-7.797c-0.97,3.724-1.864,7.465-2.634,11.233c-4.335,0.704-7.819,3.71-11.126,6.385
	c3.4,0.124,6.801-0.133,10.197-0.08c-3.281,0.54-6.265,2.338-8.377,4.888c1.992-0.669,4.479-2.048,7.168,2.984
	c-4.718,3.296-13.208,14.184-14.793,16.528c4.397-4.029,8.213-8.758,13.132-12.189c1.426,9.551-6.734,13.849-9.648,23.205
	c2.997-3.21,4.118-7.761,7.106-10.967c-0.456,4.37-1.377,8.713-2.732,12.897c5.834,5.62,3.941,6.864-1.35,13.5
	c1.133-0.43,2.329-0.704,3.538-0.832c-1.034,2.211,0.709,8.111,2.555,15.133c-2.236,7.881-4.109,15.873-5.734,23.909
	c0.186,0.367,0.562,1.098,0.748,1.466c0.434-4.516,1.612-9.094,3.967-12.999c0.77,0.664,0.824,1.727,0.97,2.661
	c1.185,12.524-3.75,16,3.662,25.423c8.995,12.951-0.264,9.028-0.894,12.663c0.757,2.568,3.237,4.109,4.295,6.535
	c-1.328,3.777-2.479,7.611-3.834,11.379c1.904-1.306,3.653-2.891,5.822-3.763c-1.322,9.066,0.258,12.78-0.31,16.834
	c0,0-4.079,9.913-5.286,16.059c1.904-3.179,3.564-6.522,5.663-9.577c1.839,8.269,1.341,7.614-2.068,20.159
	c-13.406-3.196-26.743,0.988-28.589,18.702c-1.394,20.116,6.961,66.939,13.548,86.962c8.631,25.985,33.212,54.965,50.992,99.067
	c3.471,8.5,11.904,9.754,20.814,7.859c3.61,45.643-15.335,83.368,40.22,149.899c-1.286,143.597-19.362,199.595-76.517,243.834
	c0.128-2.466,0.522-4.901,1.08-7.297c-6.627,1.196-24.28-1.911-30.063,2.13c-3.558,2.488-9.052,12.016-10.206,16.851
	c-1.275,4.724,0.116,5.42-3.555,6.509c-12.891,3.085-14.016-2.062-23.409-0.425c-3.75,0.669-7.328,2.059-11.073,2.727
	c-2.896,0.553-6.07,1.111-8.142,3.422c-2.534,2.787-9.56,13.968-9.665,20.535c0.254,2.943-3.511,2.82-31.524,15.315
	c-40.292,17.573-26.507,8.566-46.525,21.23c-19.171,12.429-67.181,46.943-106.089,55.446c-19.004,4.471-33.502,2.172-53.6,16.842
	c-23.476,17.374-18.739,19.714-19.158,23.772c-1.16,0.815-2.63,0.943-3.963,1.333c-6.491,1.536-12.326,5.012-17.569,9.045
	c-53.071,40.765-69.919,113.957-82.725,153.251c-19.924,61.333-14.059,25.751-19.264,90.694
	c-4.364,67.292-6.681,21.53-6.535,135.957c0.022,14.328,0.248,28.766-2.174,42.938c-0.385,1.78-0.677,3.608-1.182,5.371h1552.032
	C1572.994,1566.181,1596.945,1572.14,1596.668,1535.324z"/>
</svg>
